<?xml version="1.0" encoding="UTF-8" standalone="no"?>
<!-- Created with Inkscape (http://www.inkscape.org/) -->

<svg
   width="1920"
   height="1080"
   viewBox="0 0 508 285.75"
   version="1.1"
   id="svg961"
   inkscape:version="1.2.2 (b0a8486541, 2022-12-01)"
   sodipodi:docname="title_dark.svg"
   xml:space="preserve"
   xmlns:inkscape="http://www.inkscape.org/namespaces/inkscape"
   xmlns:sodipodi="http://sodipodi.sourceforge.net/DTD/sodipodi-0.dtd"
   xmlns:xlink="http://www.w3.org/1999/xlink"
   xmlns="http://www.w3.org/2000/svg"
   xmlns:svg="http://www.w3.org/2000/svg"
   xmlns:rdf="http://www.w3.org/1999/02/22-rdf-syntax-ns#"
   xmlns:cc="http://creativecommons.org/ns#"
   xmlns:dc="http://purl.org/dc/elements/1.1/"><metadata
     id="metadata134"><rdf:RDF><cc:Work
         rdf:about=""><dc:format>image/svg+xml</dc:format><dc:type
           rdf:resource="http://purl.org/dc/dcmitype/StillImage" /></cc:Work></rdf:RDF></metadata><sodipodi:namedview
     id="namedview963"
     pagecolor="#000000"
     bordercolor="#666666"
     borderopacity="1.0"
     inkscape:pageshadow="2"
     inkscape:pageopacity="0"
     inkscape:pagecheckerboard="0"
     inkscape:document-units="mm"
     showgrid="false"
     units="px"
     inkscape:zoom="0.83892832"
     inkscape:cx="891.61372"
     inkscape:cy="742.0181"
     inkscape:window-width="2494"
     inkscape:window-height="1371"
     inkscape:window-x="66"
     inkscape:window-y="32"
     inkscape:window-maximized="1"
     inkscape:current-layer="g1"
     showguides="true"
     inkscape:guide-bbox="true"
     inkscape:showpageshadow="2"
     inkscape:deskcolor="#d1d1d1"><sodipodi:guide
       position="-76.005563,42.862657"
       orientation="1,0"
       id="guide1279"
       inkscape:locked="false" /><sodipodi:guide
       position="106.57302,40.384214"
       orientation="0,-1"
       id="guide1281"
       inkscape:locked="false" /><sodipodi:guide
       position="-76.005563,40.384214"
       orientation="1,0"
       id="guide1283"
       inkscape:locked="false" /><sodipodi:guide
       position="552.69263,40.384214"
       orientation="0,-1"
       id="guide1285"
       inkscape:locked="false" /><sodipodi:guide
       position="412.71925,46.822651"
       orientation="0,-1"
       id="guide1287"
       inkscape:locked="false" /><sodipodi:guide
       position="404.58959,11.590266"
       orientation="0,-1"
       id="guide1289"
       inkscape:locked="false" /><inkscape:page
       x="0"
       y="0"
       width="508"
       height="285.75"
       id="page1"
       margin="0"
       bleed="0" /><inkscape:page
       x="518"
       y="0"
       width="200.00031"
       height="71.000059"
       id="page2" /></sodipodi:namedview><defs
     id="defs958"><clipPath
   id="clippath"><path
     d="M 46.56,0.21 C 46.27,0.28 45.99,0.38 45.71,0.49 27.58,7.87 13.41,21.86 5.8,39.9 1.94,49.05 0,58.69 0,68.33 v 0.04 c 0,9.35 1.81,18.69 5.44,27.61 1.05,2.59 3.55,4.16 6.19,4.16 0.84,0 1.69,-0.16 2.51,-0.49 3.42,-1.39 5.06,-5.28 3.67,-8.7 C 11.78,76.12 11.89,59.84 18.11,45.09 24.33,30.34 35.92,18.9 50.75,12.87 54.17,11.48 55.81,7.59 54.42,4.17 53.59,2.13 51.87,0.73 49.89,0.22 h -3.32 z"
     fill="none"
     id="path2" /></clipPath><linearGradient
   id="Unbenannter_Verlauf_21"
   x1="-202.72"
   y1="363.89999"
   x2="-201.72"
   y2="363.89999"
   gradientTransform="matrix(94.9,0,0,-94.9,19222.58,34584.59)"
   gradientUnits="userSpaceOnUse"><stop
     offset="0"
     stop-color="#fff"
     stop-opacity="0"
     id="stop5" /><stop
     offset=".18"
     stop-color="#3aa7df"
     stop-opacity=".2"
     id="stop7" /><stop
     offset=".44"
     stop-color="#3aa7df"
     stop-opacity=".35"
     id="stop9" /><stop
     offset="1"
     stop-color="#3aa7df"
     id="stop11" /></linearGradient><clipPath
   id="clippath-1"><path
     d="m 132.49,37.1 c -3.42,1.39 -5.06,5.28 -3.67,8.7 6.03,14.83 5.93,31.12 -0.29,45.86 -6.22,14.75 -17.81,26.19 -32.64,32.22 -1.88,0.76 -3.22,2.28 -3.82,4.06 v 4.24 c 0.05,0.13 0.09,0.26 0.15,0.39 0.69,1.7 2.01,2.97 3.58,3.63 h 5.22 c 18.08,-7.38 32.22,-21.36 39.82,-39.36 7.61,-18.03 7.73,-37.95 0.36,-56.08 -1.05,-2.59 -3.55,-4.16 -6.19,-4.16 -0.84,0 -1.69,0.16 -2.51,0.49"
     fill="none"
     id="path14" /></clipPath><linearGradient
   id="Unbenannter_Verlauf_22"
   x1="-207.67"
   y1="367.51001"
   x2="-206.67"
   y2="367.51001"
   gradientTransform="matrix(-108.02,0,0,108.02,-22263.89,-39613.6)"
   gradientUnits="userSpaceOnUse"><stop
     offset="0"
     stop-color="#fff"
     stop-opacity="0"
     id="stop17" /><stop
     offset=".18"
     stop-color="#3aa7df"
     stop-opacity=".2"
     id="stop19" /><stop
     offset=".44"
     stop-color="#3aa7df"
     stop-opacity=".35"
     id="stop21" /><stop
     offset="1"
     stop-color="#3aa7df"
     id="stop23" /></linearGradient><clipPath
   id="clippath-3"><rect
     width="441.42999"
     height="136.74001"
     fill="none"
     id="rect1577"
     x="0"
     y="0" /></clipPath>
	
	

		
		
		
		
	
			
			
			
		<clipPath
   id="clippath-5"><path
     d="M46.56,.21c-.29,.07-.57,.17-.85,.28C27.58,7.87,13.41,21.86,5.8,39.9,1.94,49.05,0,58.69,0,68.33v.04c0,9.35,1.81,18.69,5.44,27.61,1.05,2.59,3.55,4.16,6.19,4.16,.84,0,1.69-.16,2.51-.49,3.42-1.39,5.06-5.28,3.67-8.7-6.03-14.83-5.92-31.11,.3-45.86,6.22-14.75,17.81-26.19,32.64-32.22,3.42-1.39,5.06-5.28,3.67-8.7-.83-2.04-2.55-3.44-4.53-3.95h-3.32Z"
     fill="none"
     id="path1-5" /></clipPath><clipPath
   id="clippath-1-4"><path
     d="M132.49,37.1c-3.42,1.39-5.06,5.28-3.67,8.7,6.03,14.83,5.93,31.12-.29,45.86-6.22,14.75-17.81,26.19-32.64,32.22-1.88,.76-3.22,2.28-3.82,4.06v4.24c.05,.13,.09,.26,.15,.39,.69,1.7,2.01,2.97,3.58,3.63h5.22c18.08-7.38,32.22-21.36,39.82-39.36,7.61-18.03,7.73-37.95,.36-56.08-1.05-2.59-3.55-4.16-6.19-4.16-.84,0-1.69,.16-2.51,.49"
     fill="none"
     id="path4-7" /></clipPath><linearGradient
   inkscape:collect="always"
   xlink:href="#Unbenannter_Verlauf_21"
   id="linearGradient2"
   gradientUnits="userSpaceOnUse"
   gradientTransform="matrix(94.9,0,0,-94.9,19222.58,34584.59)"
   x1="-202.72"
   y1="363.89999"
   x2="-201.72"
   y2="363.89999" /><linearGradient
   inkscape:collect="always"
   xlink:href="#Unbenannter_Verlauf_22"
   id="linearGradient3"
   gradientUnits="userSpaceOnUse"
   gradientTransform="matrix(-108.02,0,0,108.02,-22263.89,-39613.6)"
   x1="-207.67"
   y1="367.51001"
   x2="-206.67"
   y2="367.51001" /><style
   id="style294">
      .cls-1 {
        fill: #fff;
      }
    </style></defs><g
     inkscape:label="Layer 1"
     inkscape:groupmode="layer"
     id="layer1"><g
       transform="matrix(0.03505724,0,0,-0.03505724,295.59749,274.15973)"
       id="g12"><path
         d="m 954.277,0 c 79.903,0 137.323,23.7188 181.913,53.5938 41.58,27.8593 73.81,60.8322 98.54,103.3592 31.95,54.973 41.79,106.063 44.49,135.703 0.02,0.242 58.71,617.86 58.71,617.86 l -296.23,0.019 C 1041.7,910.535 954.18,0 954.277,0"
         inkscape:connector-curvature="0"
         id="path14-6"
         style="fill:#c50e1f;fill-opacity:1;fill-rule:nonzero;stroke:none" /><path
         d="M 674.004,703.535 633.895,286.934 c -7.379,-99.7 30,-150.918 53.261,-177.911 42.485,-49.2886 120.61,-88.0386 210.832,-104.19878 2.5,26.49218 80.215,832.89878 80.215,833.04678 2.695,41.395 -9.355,77.598 -36.973,109.141 -32.207,36.785 -79.863,47.812 -99.55,47.812 L 133.391,994.746 C 80.1055,994.746 0,940.672 0,851.492 0,741.301 97.918,703.523 131.609,703.523 c 17.2,0 542.395,0.012 542.395,0.012"
         inkscape:connector-curvature="0"
         id="path16"
         style="fill:#c50e1f;fill-opacity:1;fill-rule:nonzero;stroke:none" /><path
         d="m 261.555,83.7305 263.758,0.0078 53.972,560.5197 -263.765,-0.012 c 0,0 -47.141,-487.93 -53.965,-560.5155 v 0"
         inkscape:connector-curvature="0"
         id="path18"
         style="fill:#c50e1f;fill-opacity:1;fill-rule:nonzero;stroke:none" /><path
         d="m 1145.06,412.961 c -1.6,-16.555 16.6,-25.461 33.83,-25.481 l 31.54,-0.031 c 1.87,4.555 2.99,9.719 3.61,16.137 1.68,17.586 -7.81,29.59 -35.27,29.617 -20.49,0.012 -32.38,-6.398 -33.71,-20.242 z m 86.23,-11.035 c -1.39,-14.485 -3.87,-25.453 -7.83,-36.621 l -146.94,0.125 2.15,22.136 46.94,-0.039 c 5.93,-0.007 14.08,-0.632 19.27,-1.882 l 0.04,0.418 c -12.19,5.382 -19,17.597 -17.54,32.707 2.35,24.406 20.86,37.832 51.58,37.812 35.26,-0.027 55.63,-20.527 52.33,-54.656"
         inkscape:connector-curvature="0"
         id="path20"
         style="fill:#ffffff;fill-opacity:1;fill-rule:nonzero;stroke:none" /><path
         d="m 1153.55,520.371 c -1.19,-12.402 7.19,-21.105 21.16,-22.988 l 4.2,43.652 c -14.32,0.43 -24.11,-7.629 -25.36,-20.664 z m 42.56,41.965 -6.29,-65.371 c 23.11,-0.649 34.3,9.273 36.33,30.379 0.96,9.922 -0.1,20.273 -3.08,29.59 l 17.28,2.871 c 3.07,-10.75 4.28,-23.586 3.05,-36.407 -3.05,-31.652 -21.13,-49.218 -56.99,-49.187 -30.55,0.027 -52,17.625 -49.14,47.41 2.83,29.375 23.26,41.57 46.42,41.555 3.28,0 8.19,-0.227 12.42,-0.84"
         inkscape:connector-curvature="0"
         id="path22"
         style="fill:#ffffff;fill-opacity:1;fill-rule:nonzero;stroke:none" /><path
         d="m 1170.43,640.41 c -5.86,-20.469 7.32,-30.41 37.85,-30.441 l 41.41,-0.028 -2.15,-22.136 -101.84,0.086 2.03,21.101 c 5.73,-0.008 14.69,-0.633 22.35,-2.09 l 0.04,0.411 c -13.3,4.574 -25,14.921 -21.1,34.16 l 21.41,-1.063"
         inkscape:connector-curvature="0"
         id="path24"
         style="fill:#ffffff;fill-opacity:1;fill-rule:nonzero;stroke:none" /><path
         d="m 1254.53,660.391 -149.59,0.125 2.13,22.129 149.59,-0.125 -2.13,-22.129"
         inkscape:connector-curvature="0"
         id="path26"
         style="fill:#ffffff;fill-opacity:1;fill-rule:nonzero;stroke:none" /><path
         d="m 1259.57,712.793 -101.84,0.09 2.13,22.129 101.86,-0.09 z m -118.81,11.27 c -0.74,-7.872 -7.3,-14.266 -15.1,-14.258 -7.57,0 -13.1,6.414 -12.36,14.289 0.74,7.652 7.52,14.051 15.1,14.051 7.58,-0.008 13.1,-6.426 12.36,-14.082"
         inkscape:connector-curvature="0"
         id="path28-4"
         style="fill:#ffffff;fill-opacity:1;fill-rule:nonzero;stroke:none" /><path
         d="m 1270.8,829.395 -65.37,0.058 c -12.7,0.012 -20.63,-3.508 -21.76,-15.293 -1.48,-15.527 13.6,-26.902 34.1,-26.926 l 48.97,-0.039 -2.13,-22.136 -101.84,0.086 2.03,21.105 c 5.53,-0.012 14.3,-0.43 19.93,-1.465 l 0.02,0.203 c -12.54,6.008 -20.36,18.43 -18.68,35.813 2.25,23.371 17.7,30.594 35.53,30.578 l 71.31,-0.063 -2.11,-21.921"
         inkscape:connector-curvature="0"
         id="path30-6"
         style="fill:#ffffff;fill-opacity:1;fill-rule:nonzero;stroke:none" /></g></g><g
     id="g1"
     inkscape:groupmode="layer"
     inkscape:label="1"
     transform="matrix(0.26458333,0,0,0.26458333,518,0)"><g
       id="g2"
       transform="translate(-511.65733,900.82395)"><g
         id="g9"><path
           d="M 108.28,81.32 36.03,68.58 c -3.63,-0.64 -6.06,-4.1 -5.42,-7.73 0.64,-3.63 4.1,-6.06 7.73,-5.42 l 72.25,12.74 c 3.63,0.64 6.06,4.1 5.42,7.73 -0.64,3.63 -4.1,6.06 -7.73,5.42"
           fill="#ffffff"
           id="path8-6" /><path
           d="m 65.79,111.07 c -3.63,-0.64 -6.06,-4.1 -5.42,-7.73 L 73.11,31.09 c 0.64,-3.63 4.1,-6.06 7.73,-5.42 3.63,0.64 6.06,4.1 5.42,7.73 l -12.74,72.25 c -0.64,3.63 -4.1,6.06 -7.73,5.42"
           fill="#ffffff"
           id="path9-9" /></g><g
         clip-path="url(#clippath-5)"
         id="g10"><rect
           x="-25.07"
           y="16.450001"
           width="105.94"
           height="67.459999"
           transform="rotate(-83.07,27.8933,50.174347)"
           fill="url(#Unbenannter_Verlauf_21)"
           id="rect9"
           style="fill:url(#linearGradient2)" /></g><g
         clip-path="url(#clippath-1-4)"
         id="g11"><rect
           x="68.150002"
           y="53.73"
           width="104.35"
           height="65.349998"
           transform="rotate(-84.76,120.32069,86.403154)"
           fill="url(#Unbenannter_Verlauf_22)"
           id="rect10"
           style="fill:url(#linearGradient3)" /></g><g
         id="g20"><path
           d="m 173.96,33.01 c 0,-3.96 3.14,-7.1 7.21,-7.1 4.07,0 7.1,3.14 7.1,7.1 v 68.42 c 0,3.96 -3.14,7.1 -7.1,7.1 -3.96,0 -7.21,-3.14 -7.21,-7.1 z"
           fill="#3aa7df"
           id="path11-3" /><path
           d="m 202.41,33.24 c 0,-3.96 3.14,-7.21 7.21,-7.21 h 1.51 c 3.14,0 5.24,1.63 6.63,3.84 l 24.67,38.63 24.79,-38.75 c 1.51,-2.44 3.61,-3.72 6.52,-3.72 h 1.51 c 4.07,0 7.21,3.26 7.21,7.21 v 68.19 c 0,3.96 -3.14,7.1 -7.21,7.1 -3.84,0 -7.1,-3.26 -7.1,-7.1 V 52.56 l -19.9,29.91 c -1.51,2.33 -3.37,3.72 -6.05,3.72 -2.68,0 -4.42,-1.4 -5.93,-3.72 L 216.49,52.8 v 48.76 c 0,3.96 -3.14,6.98 -7.1,6.98 -3.96,0 -6.98,-3.03 -6.98,-6.98 z"
           fill="#3aa7df"
           id="path12-7" /><path
           d="m 331.74,66.87 c 10.24,0 16.76,-5.35 16.76,-13.62 v -0.23 c 0,-8.73 -6.29,-13.5 -16.87,-13.5 H 310.8 v 27.35 h 20.95 z M 296.48,33.71 c 0,-4.07 3.14,-7.21 7.21,-7.21 h 29.09 c 10.24,0 18.27,3.03 23.51,8.15 4.3,4.42 6.75,10.47 6.75,17.57 v 0.23 c 0,13.03 -7.56,20.95 -18.5,24.32 l 15.59,19.67 c 1.4,1.74 2.33,3.26 2.33,5.47 0,3.96 -3.38,6.63 -6.87,6.63 -3.26,0 -5.35,-1.51 -6.98,-3.72 L 328.83,79.57 h -18.04 v 21.88 c 0,3.96 -3.14,7.1 -7.1,7.1 -3.96,0 -7.21,-3.14 -7.21,-7.1 z"
           fill="#3aa7df"
           id="path13-4" /><path
           d="m 368.13,67.45 v -0.23 c 0,-23.16 17.34,-42.12 42.01,-42.12 12.57,0 20.83,3.72 27.93,9.19 1.51,1.16 2.79,3.14 2.79,5.7 0,3.96 -3.14,6.98 -7.1,6.98 -1.98,0 -3.37,-0.7 -4.31,-1.4 -5.58,-4.54 -11.64,-7.33 -19.43,-7.33 -15.48,0 -26.88,12.8 -26.88,28.74 v 0.23 c 0,15.94 11.29,28.86 26.88,28.86 8.61,0 14.43,-2.79 20.36,-7.79 1.05,-0.93 2.56,-1.63 4.3,-1.63 3.61,0 6.75,3.02 6.75,6.63 0,2.21 -1.05,3.96 -2.33,5.12 -7.68,6.75 -16.41,10.94 -29.56,10.94 -23.74,0 -41.43,-18.5 -41.43,-41.89"
           fill="#3aa7df"
           id="path14-5" /><path
           d="m 41.89,6.5 c 0,-3.59 2.92,-6.5 6.51,-6.5 3.59,0 6.5,2.91 6.5,6.51 0,3.6 -2.91,6.5 -6.5,6.5 -3.59,0 -6.51,-2.91 -6.51,-6.5"
           fill="#436cb3"
           id="path15-2" /><path
           d="m 91.86,130.09 c 0,-3.59 2.91,-6.51 6.5,-6.51 3.59,0 6.5,2.91 6.5,6.51 0,3.6 -2.91,6.51 -6.5,6.51 -3.59,0 -6.5,-2.91 -6.5,-6.51"
           fill="#436cb3"
           id="path16-54" /><path
           d="m 174.52,29.97 c 1.63,-3.55 5.83,-5.11 9.38,-3.48 3.55,1.63 5.11,5.83 3.48,9.38 -1.63,3.55 -5.83,5.11 -9.38,3.48 -3.55,-1.63 -5.11,-5.83 -3.48,-9.38"
           fill="#436cb3"
           id="path17-7" /><path
           d="m 268.74,98.77 c 1.63,-3.55 5.83,-5.11 9.38,-3.48 3.55,1.63 5.11,5.83 3.48,9.38 -1.63,3.55 -5.83,5.11 -9.38,3.48 -3.55,-1.63 -5.11,-5.83 -3.48,-9.38"
           fill="#436cb3"
           id="path18-4" /><path
           d="m 349.01,98.77 c 1.63,-3.55 5.83,-5.11 9.38,-3.48 3.55,1.63 5.11,5.83 3.48,9.38 -1.63,3.55 -5.83,5.11 -9.38,3.48 -3.55,-1.63 -5.11,-5.83 -3.48,-9.38"
           fill="#436cb3"
           id="path19-4" /><path
           d="m 427.58,37.22 c 1.63,-3.55 5.83,-5.11 9.38,-3.48 3.55,1.63 5.11,5.83 3.48,9.38 -1.63,3.55 -5.83,5.11 -9.38,3.48 -3.55,-1.63 -5.11,-5.83 -3.48,-9.38"
           fill="#436cb3"
           id="path20-3" /></g></g><g
       id="g386"
       transform="matrix(0.54630183,0,0,0.54630183,-1325.825,873.1165)"><g
         id="g312"><path
           class="cls-1"
           d="m 368.62237,254.98491 h 19.61816 v 18.84863 c -1.61523,1.92383 -3.61523,3.69336 -5.92383,5.23145 -3.92383,2.69336 -9.69336,5.15527 -17.15625,5.15527 -16.15625,0 -28.46582,-12.30957 -28.46582,-27.69629 0,-15.3877 12.30957,-27.69727 28.46582,-27.69727 7.38574,0 12.77148,2.53906 16.46387,5.23145 2.07715,1.53906 3.92383,3.23145 5.46289,5.15527 l -5.38574,5.38477 c -1.07715,-1.46094 -2.46191,-2.8457 -4.07715,-4 -2.77051,-2.07715 -6.9248,-4.07812 -12.46387,-4.07812 -11.15527,0 -20.00293,8.84766 -20.00293,20.00391 0,11.15527 8.84766,20.00293 20.00293,20.00293 4.84668,0 8.46289,-1.38477 10.9248,-2.84668 1.46191,-0.84668 2.69238,-1.84668 3.69238,-2.92383 v -8.07812 h -11.15527 v -7.69336 z"
           id="path298" /><path
           class="cls-1"
           d="m 432.48272,277.29643 c -1,1.30762 -2.30859,2.46094 -3.84668,3.46191 -2.69336,1.76953 -6.46289,3.46191 -11.9248,3.46191 -10.77148,0 -19.23438,-8.46289 -19.23438,-19.23438 0,-10.77051 8.46289,-19.2334 18.84961,-19.2334 10.46289,0 18.0791,7.61719 18.0791,18.08008 0,1.15332 -0.15332,2.07715 -0.23047,2.76953 l -0.1543,1.07715 h -28.46582 c 0.84668,5.00098 5.30859,9.23242 11.54004,9.23242 3.30859,0 6.00098,-1.23145 7.84766,-2.46191 1.07715,-0.69238 2.07715,-1.53906 2.92383,-2.53906 l 4.61621,5.38574 z m -6.15527,-16.15723 c -1.15332,-5 -4.53906,-8.46191 -10.00098,-8.46191 -5.84766,0 -9.23242,3.46191 -10.77148,8.46191 z"
           id="path300" /><path
           class="cls-1"
           d="m 442.87139,246.52201 h 7.69336 v 5.00098 c 0.8457,-1 1.76953,-2.00098 2.84668,-2.84668 1.8457,-1.46191 4.61621,-2.92383 8.30859,-2.92383 h 1.92383 v 8.07812 l -1.00098,-0.15332 c -0.61523,-0.0771 -1.23047,-0.23145 -2.07715,-0.23145 -5.30859,0 -10.00098,4.61621 -10.00098,11.15625 v 18.84863 h -7.69336 V 246.522 Z"
           id="path302" /><path
           class="cls-1"
           d="m 470.56866,246.52201 h 7.69336 v 5.38574 c 0.61523,-1.1543 1.46191,-2.1543 2.46191,-3.07812 1.76953,-1.53809 4.38477,-3.07715 8.30859,-3.07715 4.00098,0 6.9248,1.53906 8.77051,3.07715 1.07715,0.92383 2.00098,1.92383 2.76953,3.07812 0.69238,-1.1543 1.69336,-2.1543 2.84668,-3.07812 2.07715,-1.53809 5.23145,-3.07715 9.84766,-3.07715 7.30957,0 13.46387,6.15527 13.46387,15.77148 v 21.92676 h -7.69336 v -21.92676 c 0,-5.46191 -3.38477,-8.46289 -7.69336,-8.46289 -5.00098,0 -8.84766,3.84668 -8.84766,10.00195 v 20.3877 h -7.69336 v -21.92676 c 0,-5.46191 -3.38574,-8.46289 -7.69336,-8.46289 -5.00098,0 -8.84766,3.84668 -8.84766,10.00195 v 20.3877 h -7.69336 v -36.92871 z"
           id="path304" /><path
           class="cls-1"
           d="m 559.04717,278.06498 c -0.76855,1.1543 -1.76953,2.1543 -2.92285,3.07812 -2.07715,1.53809 -5.00098,3.07715 -9.00195,3.07715 -7.38574,0 -12.30957,-5.00098 -12.30957,-10.77148 0,-6.1543 4.23145,-10.38574 10.77148,-11.54004 l 13.46289,-2.30762 c 0,-3.92383 -3.07715,-6.92383 -7.69336,-6.92383 -3,0 -5.23145,1.30762 -7.00098,2.53809 -1,0.69238 -1.84668,1.53906 -2.61523,2.46191 l -5.00098,-5 c 1,-1.30859 2.23145,-2.46289 3.69238,-3.46289 2.46191,-1.76953 6.00098,-3.46191 10.9248,-3.46191 9.23242,0 15.3877,6.15527 15.3877,14.2334 v 23.46484 h -7.69434 v -5.38574 z m 0,-12.30957 -10.77051,1.92383 c -3.92383,0.69238 -5.77051,2.61523 -5.77051,5.00098 0,2.69238 2.23145,5 6.15527,5 5.77051,0 10.38574,-4.61523 10.38574,-10.77051 v -1.1543 z"
           id="path306" /><path
           class="cls-1"
           d="m 577.51397,246.52201 h 7.69336 v 5.38574 c 0.76953,-1.1543 1.69238,-2.1543 2.84668,-3.07812 1.92285,-1.53809 4.76953,-3.07715 8.69336,-3.07715 8.46289,0 14.61719,6.07812 14.61719,16.15625 v 21.54199 h -7.69336 v -21.54199 c 0,-5.46191 -3.46191,-8.84766 -8.46289,-8.84766 -5.76953,0 -10.00098,4.23145 -10.00098,10.38672 v 20.00293 h -7.69336 z"
           id="path308" /><path
           class="cls-1"
           d="m 619.06085,291.14409 c 0.38477,0.23047 0.76953,0.38477 1.30859,0.61523 0.8457,0.30859 1.8457,0.53906 3.30762,0.53906 3.07715,0 5.30859,-1.92383 6.54004,-5.00098 l 1.53809,-3.84668 -15.00195,-36.92871 h 8.46289 l 10.38574,27.31152 10.38672,-27.31152 h 8.46289 l -16.15625,41.16016 c -3.07812,7.77051 -7.30957,11.9248 -13.46387,11.9248 -1.76953,0 -3.1543,-0.23047 -4.1543,-0.53809 l -1.61621,-0.61621 v -7.30859 z"
           id="path310" /></g><g
         id="g330"><path
           class="cls-1"
           d="m 340.15655,56.69633 h 22.31152 c 10.38574,0 17.69434,7.38574 17.69434,16.92578 0,6.07764 -2.61523,9.77051 -5.1543,12.15576 -1.53906,1.38477 -3.23145,2.46191 -5.1543,3.23145 l 12.23242,21.5415 h -9.61719 l -8.72267,-15.64093 c -1.50181,-2.69295 -4.34366,-4.362 -7.42706,-4.362 h -7.69988 v 20.00293 h -8.46289 V 56.69633 Z m 22.31152,26.15772 c 5.65087,0 9.49024,-4.03486 9.21781,-9.80486 -0.22989,-4.86911 -4.34328,-8.659 -9.21781,-8.659 h -13.84863 c 0,0 0,18.46386 0,18.46386 z"
           id="path314" /><path
           class="cls-1"
           d="m 407.0954,72.85259 c 10.76941,7e-4 19.23133,8.46262 19.23204,19.23252 6.9e-4,10.55952 -8.67806,19.23738 -19.23758,19.23523 -10.76809,-0.002 -19.22797,-8.46208 -19.23017,-19.22968 -0.002,-10.55963 8.67608,-19.23876 19.23571,-19.23807 z m 11.53869,19.23388 c 0,-7.00098 -5.00098,-11.9248 -11.54004,-11.9248 -6.54004,0 -11.54102,4.92383 -11.54102,11.9248 0,7.00097 5.00098,11.9248 11.54102,11.9248 6.53906,0 11.54004,-4.92383 11.54004,-11.9248 z"
           id="path316" /><path
           class="cls-1"
           d="m 435.17706,56.69633 h 7.69336 v 22.31104 c 0.76953,-1.15381 1.76953,-2.15381 3,-3.07715 2.07715,-1.53857 5.15527,-3.07764 9.69434,-3.07764 9.23145,0 17.30957,8.07812 17.30957,19.23389 0,11.15577 -8.07812,19.23389 -17.30957,19.23389 -4.53906,0 -7.61719,-1.53906 -9.69434,-3.07764 -1.23047,-0.92334 -2.23047,-1.92334 -3,-3.07715 v 5.38525 h -7.69336 z m 30.0039,35.39014 c 0,-7.00098 -5.00098,-11.9248 -11.15527,-11.9248 -6.15429,0 -11.15527,4.92383 -11.15527,11.9248 0,7.00097 5.00098,11.9248 11.15527,11.9248 6.15429,0 11.15527,-4.92383 11.15527,-11.9248 z"
           id="path318" /><path
           class="cls-1"
           d="m 498.26825,72.85259 c 10.76941,7e-4 19.23133,8.46262 19.23204,19.23252 6.9e-4,10.55952 -8.67806,19.23738 -19.23758,19.23523 -10.76809,-0.002 -19.22797,-8.46208 -19.23017,-19.22968 -0.002,-10.55963 8.67608,-19.23876 19.23571,-19.23807 z m 11.53869,19.23388 c 0,-7.00098 -5.00098,-11.9248 -11.54004,-11.9248 -6.54004,0 -11.54102,4.92383 -11.54102,11.9248 0,7.00097 5.00098,11.9248 11.54102,11.9248 6.53906,0 11.54004,-4.92383 11.54004,-11.9248 z"
           id="path320" /><path
           class="cls-1"
           d="m 529.81182,80.93071 h -6.9248 v -7.30859 h 4.23145 c 2.38574,0 3.46289,-1.15381 3.46289,-4.23145 v -8.07812 h 6.92383 v 12.30957 h 8.46289 v 7.30859 h -8.46289 v 17.31055 c 0,3.84668 1.76953,5.77002 5.38574,5.77002 1.15332,0 2.15332,-0.23047 3,-0.53857 l 1.23145,-0.61523 v 7.30859 l -1.61621,0.61572 c -1,0.30762 -2.38477,0.53857 -4.1543,0.53857 -7.38574,0 -11.54004,-4.23145 -11.54004,-12.30957 V 80.93071 Z"
           id="path322" /><path
           class="cls-1"
           d="m 560.58721,57.46586 c 2.38477,0 4.61621,1.92334 4.61621,4.61621 0,2.69238 -2.23145,4.61572 -4.61621,4.61572 -2.38574,0 -4.61621,-1.92334 -4.61621,-4.61572 0,-2.69287 2.23047,-4.61621 4.61621,-4.61621 z m -3.84668,16.15625 h 7.69336 v 36.92871 h -7.69336 z"
           id="path324" /><path
           class="cls-1"
           d="m 608.28839,103.62651 c -1.1543,1.46191 -2.46191,2.69287 -4.00098,3.84668 -2.46816,1.76361 -5.90637,3.52682 -10.49218,3.80826 -11.03356,0.67715 -20.30171,-7.75563 -20.50905,-18.808 -0.2055,-10.95458 8.33057,-19.62086 19.23073,-19.62086 5.23145,0 9.07812,1.84668 11.61719,3.69287 1.46094,1.07715 2.76953,2.30811 3.76953,3.61621 l -5.38574,5.00049 c -0.69238,-0.92285 -1.53906,-1.76953 -2.53906,-2.46191 -1.76953,-1.23096 -4.1543,-2.53857 -7.46191,-2.53857 -6.54004,0 -11.54102,4.92383 -11.54102,11.9248 0,7.00097 5.00098,11.9248 11.54102,11.9248 3.30762,0 5.84668,-1.23096 7.61621,-2.69238 1,-0.76953 1.92285,-1.69287 2.76953,-2.69287 l 5.38574,5.00049 z"
           id="path326" /><path
           class="cls-1"
           d="m 617.13702,99.39506 c 0.76953,1.00049 1.61621,1.84668 2.61621,2.53906 1.76953,1.23096 4.00098,2.46191 7.00098,2.46191 4.30859,0 6.53906,-2.23096 6.53906,-4.61621 0,-6.15479 -19.61816,-3.00049 -19.61816,-16.15625 0,-5.77002 5.07812,-10.771 13.46387,-10.771 4.38477,0 7.69336,1.30811 9.84766,2.53906 1.30762,0.69238 2.38477,1.53857 3.23145,2.46191 l -5.00098,5.00049 c -0.61523,-0.53809 -1.30762,-1.07666 -2.1543,-1.53857 -1.46191,-0.84619 -3.46191,-1.53857 -5.92383,-1.53857 -3.92383,0 -5.77051,1.92334 -5.77051,3.84668 0,6.15479 19.61816,3.07764 19.61816,16.15625 0,6.15479 -5.30762,11.54053 -14.23242,11.54053 -4.92383,0 -8.46289,-1.69287 -10.9248,-3.4624 -1.46191,-1 -2.69238,-2.15381 -3.69238,-3.46191 l 5,-5.00098 z"
           id="path328" /></g><g
         id="g350"><path
           class="cls-1"
           d="m 340.15655,143.14604 h 8.46289 v 53.85449 h -8.46289 z"
           id="path332" /><path
           class="cls-1"
           d="m 361.7005,160.07182 h 7.69336 v 5.38525 c 0.76953,-1.15381 1.69238,-2.15381 2.84668,-3.07715 1.92285,-1.53857 4.76953,-3.07764 8.69336,-3.07764 8.46289,0 14.61719,6.07812 14.61719,16.15625 v 21.54199 h -7.69336 v -21.54199 c 0,-5.46191 -3.46191,-8.84717 -8.46289,-8.84717 -5.76953,0 -10.00098,4.23145 -10.00098,10.38623 v 20.00293 h -7.69336 v -36.92871 z"
           id="path334" /><path
           class="cls-1"
           d="m 407.8626,185.84477 c 0.76953,1.00049 1.61621,1.84668 2.61621,2.53906 1.76953,1.23096 4,2.46191 7.00098,2.46191 4.30859,0 6.53906,-2.23096 6.53906,-4.61621 0,-6.15479 -19.61816,-3.00049 -19.61816,-16.15625 0,-5.77002 5.07812,-10.771 13.46387,-10.771 4.38477,0 7.69336,1.30811 9.84766,2.53906 1.30762,0.69238 2.38477,1.53857 3.23145,2.46191 l -5.00098,5.00098 c -0.61523,-0.53857 -1.30762,-1.07715 -2.1543,-1.53906 -1.46191,-0.84619 -3.46191,-1.53857 -5.92383,-1.53857 -3.92383,0 -5.77051,1.92334 -5.77051,3.84668 0,6.15479 19.61914,3.07764 19.61914,16.15625 0,6.15479 -5.30859,11.54053 -14.2334,11.54053 -4.92383,0 -8.46289,-1.69287 -10.9248,-3.4624 -1.46191,-1 -2.69238,-2.15381 -3.69238,-3.46191 l 5,-5.00098 z"
           id="path336" /><path
           class="cls-1"
           d="m 443.63995,167.38041 h -6.9248 v -7.30859 h 4.23145 c 2.38574,0 3.46289,-1.15381 3.46289,-4.23145 v -8.07812 h 6.92383 v 12.30957 h 8.46289 v 7.30859 h -8.46289 v 17.31055 c 0,3.84668 1.76953,5.77002 5.38574,5.77002 1.15332,0 2.15332,-0.23096 3,-0.53857 l 1.23145,-0.61523 v 7.30859 l -1.61621,0.61572 c -1,0.30762 -2.38477,0.53857 -4.1543,0.53857 -7.38574,0 -11.54004,-4.23145 -11.54004,-12.30957 v -18.08008 z"
           id="path338" /><path
           class="cls-1"
           d="m 474.41534,143.91557 c 2.38477,0 4.61621,1.92334 4.61621,4.61621 0,2.69238 -2.23145,4.61572 -4.61621,4.61572 -2.38574,0 -4.61621,-1.92334 -4.61621,-4.61572 0,-2.69287 2.23047,-4.61621 4.61621,-4.61621 z m -3.84668,16.15625 h 7.69336 v 36.92871 h -7.69336 z"
           id="path340" /><path
           class="cls-1"
           d="m 493.26592,167.38041 h -6.9248 v -7.30859 h 4.23145 c 2.38574,0 3.46289,-1.15381 3.46289,-4.23145 v -8.07812 h 6.92383 v 12.30957 h 8.46289 v 7.30859 h -8.46289 v 17.31055 c 0,3.84668 1.76953,5.77002 5.38574,5.77002 1.15332,0 2.15332,-0.23096 3,-0.53857 l 1.23145,-0.61523 v 7.30859 l -1.61621,0.61572 c -1,0.30762 -2.38477,0.53857 -4.1543,0.53857 -7.38574,0 -11.54004,-4.23145 -11.54004,-12.30957 v -18.08008 z"
           id="path342" /><path
           class="cls-1"
           d="m 519.04132,160.07182 h 7.69336 v 21.54199 c 0,5.46191 3.46191,8.84717 8.46289,8.84717 5.76953,0 10.00098,-4.23145 10.00098,-10.38623 v -20.00293 h 7.69336 v 36.92871 h -7.69336 v -5.38525 c -0.8457,1.15381 -1.76953,2.15381 -2.92285,3.07715 -1.92383,1.53857 -4.69336,3.07764 -8.61719,3.07764 -8.46289,0 -14.61719,-6.07812 -14.61719,-16.15625 v -21.54199 z"
           id="path344" /><path
           class="cls-1"
           d="m 567.51202,167.38041 h -6.9248 v -7.30859 h 4.23145 c 2.38574,0 3.46289,-1.15381 3.46289,-4.23145 v -8.07812 h 6.92383 v 12.30957 h 8.46289 v 7.30859 h -8.46289 v 17.31055 c 0,3.84668 1.76953,5.77002 5.38574,5.77002 1.15332,0 2.15332,-0.23096 3,-0.53857 l 1.23145,-0.61523 v 7.30859 l -1.61621,0.61572 c -1,0.30762 -2.38477,0.53857 -4.1543,0.53857 -7.38574,0 -11.54004,-4.23145 -11.54004,-12.30957 v -18.08008 z"
           id="path346" /><path
           class="cls-1"
           d="m 625.9837,190.84575 c -1,1.30811 -2.30859,2.46191 -3.84668,3.46191 -2.69336,1.76953 -6.46289,3.4624 -11.9248,3.4624 -10.77148,0 -19.23438,-8.46289 -19.23438,-19.23389 0,-10.771 8.46289,-19.23389 18.84961,-19.23389 10.46289,0 18.0791,7.6167 18.0791,18.08008 0,1.15381 -0.15332,2.07715 -0.23047,2.76953 l -0.1543,1.07715 h -28.46582 c 0.84668,5.00049 5.30859,9.23193 11.54004,9.23193 3.30859,0 6.00098,-1.23096 7.84766,-2.46191 1.07715,-0.69238 2.07715,-1.53857 2.92383,-2.53857 l 4.61621,5.38525 z m -6.15528,-16.15625 c -1.1543,-5.00098 -4.53906,-8.46289 -10.00098,-8.46289 -5.84766,0 -9.23242,3.46191 -10.77148,8.46289 z"
           id="path348" /></g><path
         class="cls-1"
         d="m 283.0341,161.57208 h -0.18121 C 216.1237,161.37304 178.58263,128.74126 178.58263,56.69291 h -17.00787 v 69.45031 c 0,21.88976 -8.93195,35.39096 -36.70062,35.42886 H 56.69291 v 17.01332 h 68.18121 c 27.76868,0.0379 36.70062,13.53911 36.70062,35.42886 v 69.45031 h 17.00787 c 0,-72.04835 37.54108,-104.68013 104.27026,-104.87917 h 0.61163 v -17.01332 h -0.43042 z"
         id="path352" /></g></g></svg>
