<?xml version="1.0" encoding="UTF-8" standalone="no"?>
<svg
   id="Ebene_1"
   viewBox="0 0 169.99999 170"
   version="1.1"
   sodipodi:docname="favicon.svg"
   width="170"
   height="170"
   inkscape:version="1.1.2 (0a00cf5339, 2022-02-04)"
   xmlns:inkscape="http://www.inkscape.org/namespaces/inkscape"
   xmlns:sodipodi="http://sodipodi.sourceforge.net/DTD/sodipodi-0.dtd"
   xmlns="http://www.w3.org/2000/svg"
   xmlns:svg="http://www.w3.org/2000/svg">
  <sodipodi:namedview
     id="namedview49"
     pagecolor="#ffffff"
     bordercolor="#666666"
     borderopacity="1.0"
     inkscape:pageshadow="2"
     inkscape:pageopacity="0.0"
     inkscape:pagecheckerboard="0"
     showgrid="false"
     width="170px"
     inkscape:zoom="3.4391515"
     inkscape:cx="87.376203"
     inkscape:cy="76.326966"
     inkscape:window-width="2486"
     inkscape:window-height="1376"
     inkscape:window-x="74"
     inkscape:window-y="27"
     inkscape:window-maximized="1"
     inkscape:current-layer="Ebene_1" />
  <defs
     id="defs26">
    <clipPath
       id="clippath">
      <path
         d="m 58.54,6.69 c -0.29,0.07 -0.57,0.17 -0.85,0.28 -18.13,7.37 -32.31,21.37 -39.91,39.4 -3.86,9.15 -5.8,18.79 -5.8,28.43 v 0.04 c 0,9.35 1.81,18.69 5.44,27.61 1.05,2.59 3.55,4.16 6.19,4.16 0.84,0 1.69,-0.16 2.51,-0.49 3.42,-1.39 5.06,-5.28 3.67,-8.7 C 23.76,82.59 23.87,66.31 30.09,51.56 36.31,36.81 47.9,25.37 62.73,19.34 66.15,17.95 67.79,14.06 66.4,10.64 65.57,8.6 63.85,7.2 61.87,6.69 h -3.32 z"
         fill="none"
         id="path2" />
    </clipPath>
    <linearGradient
       id="Unbenannter_Verlauf_21"
       x1="-190.75"
       y1="370.38"
       x2="-189.75"
       y2="370.38"
       gradientTransform="matrix(94.9,0,0,-94.9,18097.99,35205.68)"
       gradientUnits="userSpaceOnUse">
      <stop
         offset="0"
         stop-color="#fff"
         stop-opacity="0"
         id="stop5" />
      <stop
         offset=".18"
         stop-color="#3aa7df"
         stop-opacity=".2"
         id="stop7" />
      <stop
         offset=".44"
         stop-color="#3aa7df"
         stop-opacity=".35"
         id="stop9" />
      <stop
         offset="1"
         stop-color="#3aa7df"
         id="stop11" />
    </linearGradient>
    <clipPath
       id="clippath-1">
      <path
         d="m 144.47,43.57 c -3.42,1.39 -5.06,5.28 -3.67,8.7 6.03,14.83 5.93,31.12 -0.29,45.86 -6.22,14.75 -17.81,26.19 -32.64,32.22 -1.88,0.76 -3.22,2.28 -3.82,4.06 v 4.24 c 0.05,0.13 0.09,0.26 0.15,0.39 0.69,1.7 2.01,2.97 3.58,3.63 H 113 c 18.08,-7.38 32.22,-21.36 39.82,-39.36 7.61,-18.03 7.73,-37.95 0.36,-56.08 -1.05,-2.59 -3.55,-4.16 -6.19,-4.16 -0.84,0 -1.69,0.16 -2.51,0.49"
         fill="none"
         id="path14" />
    </clipPath>
    <linearGradient
       id="Unbenannter_Verlauf_22"
       x1="-195.7"
       y1="373.98999"
       x2="-194.7"
       y2="373.98999"
       gradientTransform="matrix(-108.02,0,0,108.02,-20958.16,-40306.74)"
       gradientUnits="userSpaceOnUse">
      <stop
         offset="0"
         stop-color="#fff"
         stop-opacity="0"
         id="stop17" />
      <stop
         offset=".18"
         stop-color="#3aa7df"
         stop-opacity=".2"
         id="stop19" />
      <stop
         offset=".44"
         stop-color="#3aa7df"
         stop-opacity=".35"
         id="stop21" />
      <stop
         offset="1"
         stop-color="#3aa7df"
         id="stop23" />
    </linearGradient>
  </defs>
  <g
     id="g32" />
  <g
     id="g206"
     transform="translate(-0.29947096,10.225)">
    <path
       d="M 120.26,87.79 48.01,75.05 c -3.63,-0.64 -6.06,-4.1 -5.42,-7.73 0.64,-3.63 4.1,-6.06 7.73,-5.42 l 72.25,12.74 c 3.63,0.64 6.06,4.1 5.42,7.73 -0.64,3.63 -4.1,6.06 -7.73,5.42"
       fill="#575756"
       id="path28"
       style="fill:#999999;stroke:#999999" />
    <path
       d="m 77.76,117.55 c -3.63,-0.64 -6.06,-4.1 -5.42,-7.73 L 85.08,37.57 c 0.64,-3.63 4.1,-6.06 7.73,-5.42 3.63,0.64 6.06,4.1 5.42,7.73 l -12.74,72.25 c -0.64,3.63 -4.1,6.06 -7.73,5.42"
       fill="#575756"
       id="path30"
       style="fill:#999999;stroke:#999999" />
    <g
       clip-path="url(#clippath)"
       id="g36">
      <rect
         x="-13.09"
         y="22.92"
         width="105.94"
         height="67.459999"
         transform="rotate(-83.07,39.872012,56.655094)"
         fill="url(#Unbenannter_Verlauf_21)"
         id="rect34"
         style="fill:url(#Unbenannter_Verlauf_21)" />
    </g>
    <g
       clip-path="url(#clippath-1)"
       id="g40">
      <rect
         x="80.120003"
         y="60.209999"
         width="104.35"
         height="65.349998"
         transform="rotate(-84.76,132.30023,92.885719)"
         fill="url(#Unbenannter_Verlauf_22)"
         id="rect38"
         style="fill:url(#Unbenannter_Verlauf_22)" />
    </g>
    <g
       id="g46">
      <path
         d="m 53.87,12.98 c 0,-3.59 2.91,-6.51 6.51,-6.51 3.6,0 6.5,2.91 6.5,6.51 0,3.6 -2.91,6.5 -6.5,6.5 -3.59,0 -6.51,-2.91 -6.51,-6.5"
         fill="#004f9f"
         id="path42" />
      <path
         d="m 103.84,136.57 c 0,-3.59 2.91,-6.51 6.5,-6.51 3.59,0 6.5,2.91 6.5,6.51 0,3.6 -2.91,6.51 -6.5,6.51 -3.59,0 -6.5,-2.91 -6.5,-6.51"
         fill="#004f9f"
         id="path44" />
    </g>
  </g>
</svg>
